<svg id="svg" version="1.1" viewBox="0 0 300 300" width="300" height="300" xmlns="http://www.w3.org/2000/svg">
    <defs>
        <clipPath id="clip-1">
            <rect x="0" y="0" transform="scale(0.14648,0.14648)" width="2048" height="2048" fill="none"/>
        </clipPath>
    </defs>
    <g clip-path="url(#clip-1)" fill="none" fill-rule="nonzero" stroke="none" stroke-width="1" stroke-linecap="butt" stroke-linejoin="miter" stroke-miterlimit="10" stroke-dasharray="" stroke-dashoffset="0" font-family="none" font-weight="none" font-size="none" text-anchor="none" style="mix-blend-mode: normal">
      <path d="M0,0h300v300h-300z" fill="none"/>
        
      <!-- Outer Shield (Light Blue) -->
      <path d="M149.34229,5.03493
              c1.32861,-0.14517 2.67188,0.17104 3.91699,0.61312
              c2.71582,0.96478 5.32471,2.61354 7.91602,3.88282
              c4.60254,2.23496 9.2959,4.27852 14.06836,6.12538
              c21.60059,8.16079 44.15332,13.53516 67.11328,15.99316
              c6.19775,0.71294 12.41455,1.23369 18.64307,1.56182
              c3.17139,0.16655 8.12988,0.03062 11.07422,0.63442
              c1.45605,0.29839 2.92822,0.96812 4.08252,1.90693
              c2.18115,1.77261 3.42627,4.04912 3.71777,6.84229
              c0.1875,1.80527 0.10986,3.68101 0.10986,5.49492
              l-0.00439,8.49155
              l-0.00439,27.3022
              v21.3873
              c-0.00146,8.36118 -0.03662,16.64985 -0.73242,24.98936
              c-3.22559,37.23589 -17.47412,72.6646 -40.92627,101.76519
              c-13.05615,16.21289 -28.70801,30.15088 -46.31982,41.24707
              c-7.91162,4.95703 -16.21436,9.28418 -24.41309,13.74316
              c-4.09717,2.22949 -12.44531,7.4458 -16.65234,7.88818
              c-1.60986,0.08057 -3.07471,-0.08203 -4.60225,-0.61816
              c-2.02573,-0.71338 -3.90103,-1.87939 -5.78042,-2.90479
              l-7.61792,-4.15723
              c-6.48252,-3.53906 -13.1146,-6.93311 -19.47715,-10.67871
              c-7.69072,-4.53516 -15.06826,-9.58154 -22.08281,-15.104
              c-39.12495,-30.99316 -64.33872,-76.25684 -70.09687,-125.83594
              c-1.28232,-10.89609 -1.26416,-21.74707 -1.26519,-32.69824
              l0.00293,-30.19614
              l-0.00967,-19.55259
              c-0.00483,-3.52339 -0.27935,-7.31396 0.15044,-10.80293
              c0.22471,-1.82329 0.94175,-3.66899 2.11216,-5.09517
              c1.21245,-1.47788 3.00659,-2.66675 4.84028,-3.20713
              c2.92661,-0.8625 6.84126,-0.57085 9.93442,-0.72891
              c4.57222,-0.22441 9.13916,-0.54302 13.69805,-0.95581
              c23.53198,-2.00903 46.71592,-6.98335 69.00059,-14.80503
              c5.3981,-1.97153 10.72061,-4.14412 15.95625,-6.51327
              c3.78223,-1.69553 9.87642,-5.5975 13.6478,-6.01484z" 
            fill="#c2d9ed"/>
      
      <!-- Inner Shield (Dark Blue) -->
      <path d="M148.18652,27.43286
              c1.50732,-0.09741 3.06006,-0.04556 4.52344,0.36006
              c2.73486,0.75864 5.38916,2.27256 8.0127,3.38203
              c4.61572,1.94355 9.28125,3.76714 13.99219,5.46899
              c17.5708,6.33267 35.72754,10.90137 54.20215,13.63857
              c4.37109,0.62593 8.92822,1.41519 13.31396,1.771
              c4.29639,0.34863 8.77881,0.26851 13.03271,0.87568
              c0.88037,0.12554 1.78125,0.36606 2.53418,0.85269
              c0.92139,0.59561 1.80029,1.74668 2.01709,2.83564
              c0.51709,2.58677 0.19775,7.26372 0.19629,10.00532
              l-0.00879,20.77866
              v19.42617
              c0.00146,5.61372 0.04834,11.24897 -0.30029,16.85449
              c-1.77539,30.998 -12.11279,60.89546 -29.86084,86.37056
              c-10.07812,14.47119 -22.3667,27.26807 -36.41748,37.9248
              c-1.92187,1.46191 -3.83203,2.99561 -5.82568,4.35791
              c-6.89648,4.71533 -14.26465,8.81982 -21.61084,12.78223
              c-3.35449,1.80908 -10.48828,6.17871 -13.75342,6.75732
              c-1.74756,0.03076 -3.76318,0.23291 -5.45947,-0.21973
              c-2.53652,-0.67529 -5.09136,-2.40234 -7.39893,-3.65479
              l-11.63496,-6.35596
              c-39.38701,-21.43066 -68.57622,-57.71191 -81.07456,-100.77539
              c-2.798,-9.63721 -4.72339,-19.50586 -5.75303,-29.48774
              c-0.4585,-4.47935 -0.74121,-8.9748 -0.84756,-13.47627
              c-0.30571,-12.1541 -0.06196,-24.36753 -0.06255,-36.52734
              l-0.01172,-15.16567
              c-0.00249,-2.74175 -0.12539,-5.55088 0.04614,-8.28618
              c0.05625,-0.89663 0.17754,-1.71753 0.64014,-2.50723
              c0.57583,-0.9832 1.50103,-1.77861 2.57432,-2.16768
              c2.10015,-0.76128 5.9877,-0.61611 8.33994,-0.78472
              c3.00718,-0.20493 6.00908,-0.48135 9.00308,-0.82925
              c21.51035,-2.34507 42.6769,-7.17334 63.07632,-14.38872
              c5.677,-2.02925 11.29526,-4.2189 16.84819,-6.56646
              c2.55293,-1.06143 4.97358,-2.57959 7.66729,-3.24902z" 
            fill="#143b78"/>

      <!-- Lock Body outside atom (light yellow) -->    
      <path d="M149.05811,57.71631
              c12.56396,-0.52017 24.63721,3.57715 33.94482,12.16274
              c9.04688,8.34639 15.11133,20.17207 15.61084,32.57329
              c0.17432,4.31968 0.03662,8.69297 0.03516,13.0188
              c-0.00146,5.50312 0.09814,11.02837 -0.02051,16.52915
              c2.92383,0.11455 5.8623,0.05244 8.78613,0.04658
              c2.34521,-0.00469 4.71973,0.0687 7.06055,-0.03735
              v91.25464
              l-115.65073,-0.00879
              l-11.53066,0.01758
              l-0.0126,-91.4165
              c5.21821,0.13286 10.47598,0.13638 15.698,0.18472
              l0.11689,-0.02637
              c0.19233,-6.99902 0.0249,-14.04609 0.02124,-21.04893
              c-0.0019,-3.57759 -0.17578,-7.25801 0.15483,-10.82051
              c1.04722,-10.25918 5.44189,-19.88848 12.50581,-27.40151
              c6.85181,-7.32188 15.98994,-12.7311 25.94722,-14.429
              c2.40645,-0.4103 4.89551,-0.51914 7.33301,-0.59854z" 
            fill="#f89f00"/>

      <!-- Inner Shield for area inside lock shackle (Dark Blue) -->    
      <path d="M149.05811,57.71631
              c12.56396,-0.52017 24.63721,3.57715 33.94482,12.16274
              c9.04688,8.34639 15.11133,20.17207 15.61084,32.57329
              c0.17432,4.31968 0.03662,8.69297 0.03516,13.0188
              c-0.00146,5.50312 0.09814,11.02837 -0.02051,16.52915
              c-3.88623,-0.09053 -7.82959,-0.0605 -11.71582,0.02373
              c-1.86475,0.24888 -3.95654,0.05713 -5.83887,0.02446
              l-40.21055,-0.0063
              c-6.80142,0.00454 -13.64619,0.1667 -20.44277,-0.0375
              c-3.87656,-0.15117 -7.82139,-0.02637 -11.70396,0.01582
              c-1.63389,0.25327 -3.96372,0.18369 -5.62046,-0.00571
              c0.19233,-6.99902 0.0249,-14.04609 0.02124,-21.04893
              c-0.0019,-3.57759 -0.17578,-7.25801 0.15483,-10.82051
              c1.04722,-10.25918 5.44189,-19.88848 12.50581,-27.40151
              c6.85181,-7.32188 15.98994,-12.7311 25.94722,-14.429
              c2.40645,-0.4103 4.89551,-0.51914 7.33301,-0.59854z" 
            fill="#143b78"/>
    
      <!-- Lock shackle (light grey) -->     
      <path d="M149.05811,57.71631
              c12.56396,-0.52017 24.63721,3.57715 33.94482,12.16274
              c9.04688,8.34639 15.11133,20.17207 15.61084,32.57329
              c0.17432,4.31968 0.03662,8.69297 0.03516,13.0188
              c-0.00146,5.50312 0.09814,11.02837 -0.02051,16.52915
              c-3.88623,-0.09053 -7.82959,-0.0605 -11.71582,0.02373
              c-1.86475,0.24888 -3.95654,0.05713 -5.83887,0.02446
              l0.00439,-19.49473
              c0,-4.88628 0.45557,-10.30137 -0.71484,-15.06768
              c-1.03857,-4.2375 -3.2373,-8.23447 -6.00586,-11.58501
              c-4.30225,-5.20898 -8.63232,-7.80908 -14.99561,-9.85313
              c-1.37695,-0.44253 -2.84033,-1.03389 -4.2832,-1.17246
              c-2.91504,-0.1752 -5.76123,-0.2896 -8.6666,0.10034
              c-5.47603,0.73491 -11.59292,3.69448 -15.70635,7.31733
              c-6.32344,5.56904 -9.67471,12.84375 -10.16191,21.19321
              c-0.19556,3.35215 -0.12524,6.72012 -0.12466,10.07681
              c0.00117,6.14517 0.06753,12.29707 0.00132,18.4415
              c-3.87656,-0.15117 -7.82139,-0.02637 -11.70396,0.01582
              c-1.63389,0.25327 -3.96372,0.18369 -5.62046,-0.00571
              c0.19233,-6.99902 0.0249,-14.04609 0.02124,-21.04893
              c-0.0019,-3.57759 -0.17578,-7.25801 0.15483,-10.82051
              c1.04722,-10.25918 5.44189,-19.88848 12.50581,-27.40151
              c6.85181,-7.32188 15.98994,-12.7311 25.94722,-14.429
              c2.40645,-0.4103 4.89551,-0.51914 7.33301,-0.59854z" 
            fill="#c2d9ed"/>

      <!-- Outer Darker side of lock shackle that shows shadow (Dark grey) -->     
      <path d="M103.096,132.01479
              c0.19233,-6.99902 0.0249,-14.04609 0.02124,-21.04893
              c-0.0019,-3.57759 -0.17578,-7.25801 0.15483,-10.82051
              c1.04722,-10.25918 5.44189,-19.88848 12.50581,-27.40151
              c6.85181,-7.32188 15.98994,-12.7311 25.94722,-14.429
              c2.40645,-0.4103 4.89551,-0.51914 7.33301,-0.59854
              c-13.35117,2.63657 -25.02773,9.95142 -32.59424,21.31274
              c-2.01138,3.02007 -3.53174,6.20361 -4.7707,9.60249
              c-0.5562,1.52607 -1.17144,3.06533 -1.56987,4.63975
              c-1.78081,7.03608 -1.44009,14.61665 -1.43877,21.81519
              c0.00103,5.6373 -0.11206,11.2998 0.03193,16.93403
              c-1.63389,0.25327 -3.96372,0.18369 -5.62046,-0.00571z" 
            fill="#899ea8"/>

      <!-- Inner Darker side of lock shackle that shows shadow (Dark grey) -->    
      <path d="M155.07861,74.87549
              c6.88184,-0.87129 14.87549,2.16533 20.29248,6.32813
              c6.14355,4.72236 10.36377,12.25239 11.29102,19.90503
              c0.44824,3.68936 0.25488,7.52417 0.25488,11.23975
              l-0.00439,19.67563
              c-1.86475,0.24888 -3.95654,0.05713 -5.83887,0.02446
              l0.00439,-19.49473
              c0,-4.88628 0.45557,-10.30137 -0.71484,-15.06768
              c-1.03857,-4.2375 -3.2373,-8.23447 -6.00586,-11.58501
              c-4.30225,-5.20898 -8.63232,-7.80908 -14.99561,-9.85313
              c-1.37695,-0.44253 -2.84033,-1.03389 -4.2832,-1.17246z" 
            fill="#899ea8"/>
      
      <!-- Darker side of Padlock that shows shadow (Dark grey) -->    
      <path d="M87.2811,131.85645
              c5.21821,0.13286 10.47598,0.13638 15.698,0.18472
              c-1.23984,0.42671 -3.2499,0.14341 -4.57646,0.12305
              c-0.38042,2.89995 -0.08247,6.78325 -0.07822,9.77798
              l0.00029,19.42939
              l-0.00278,39.97705
              c-0.00044,7.17041 -0.13755,14.37451 0.0394,21.54199
              c0.15029,0.12158 0.30322,0.25928 0.46304,0.36475
              l-11.53066,0.01758z" 
            fill="#e58900"/>

      <!-- Electron Orbits (Black) -->    
      <path d="M138.11895,154.20557
              c0.92256,-1.41064 1.36157,-3.10693 2.01812,-4.65088
              c0.92725,-2.18115 2.1936,-4.39028 3.60439,-6.29473
              c1.90063,-2.56582 4.48901,-4.89287 7.75269,-5.36748
              c1.59814,-0.23262 3.90527,-0.1021 5.23828,0.87847
              c-1.40332,0.82427 -2.50488,2.07905 -3.13916,3.57832
              c-4.7959,1.5479 -6.12158,3.21299 -8.40513,7.63608
              c-0.89341,1.72852 -1.35586,3.65332 -2.22905,5.35547
              c1.65249,0.48633 3.31245,0.89941 4.92422,1.51758
              c1.64355,0.63135 3.23584,1.44727 4.89258,2.02588
              c9.03662,-3.50391 21.70313,-8.61475 31.21143,-4.48535
              c2.53271,1.1001 4.229,2.88574 5.21191,5.45947
              c1.29346,3.38525 0.23145,6.79834 -1.19678,9.95947
              c-1.43115,3.16699 -3.80127,6.80713 -6.4043,9.1626
              c3.59473,3.94482 8.53564,10.84717 8.19873,16.42383
              c-0.15088,2.48145 -1.43408,5.16943 -3.30322,6.81885
              c-0.09961,0.08789 -0.20654,0.16846 -0.31201,0.24902
              c-1.00195,-1.40332 -0.7002,-2.89893 -2.1123,-4.76221
              c0.11133,-0.08789 0.18896,-0.1377 0.27686,-0.26367
              c0.57275,-0.82471 0.78369,-2.02148 0.71338,-3
              c-0.2915,-4.06348 -3.84521,-9.26074 -6.86279,-11.84473
              c-1.14111,1.00049 -2.27197,2.03027 -3.4541,2.97949
              c-1.53516,1.23193 -3.42041,2.3877 -4.63916,3.93457
              c-0.04395,1.22461 -0.30029,2.49902 -0.47607,3.71484
              c-0.98584,6.83643 -2.86523,14.28516 -6.60205,20.17822
              c-1.99805,3.15088 -4.87793,5.93115 -8.63232,6.7207
              c-2.2793,0.479 -4.66113,-0.15088 -6.58154,-1.41797
              c-4.67344,-3.08203 -8.07129,-9.5625 -9.17461,-14.92822
              c-1.55156,0.35596 -3.10811,0.71191 -4.67886,0.97412
              c-4.64385,0.77051 -10.38193,0.41748 -14.32075,-2.4375
              c-2.24385,-1.62744 -3.29868,-3.94629 -3.72642,-6.61523
              c1.60752,0.93896 3.50449,1.25244 5.32866,0.88184
              c-0.01597,0.19922 -0.04336,0.43506 0.01948,0.62842
              c0.25078,0.77637 1.41094,1.51172 2.12007,1.81494
              c3.40093,1.45166 6.71543,1.41211 10.29727,0.91846
              c1.1915,-0.16553 2.38374,-0.29443 3.50229,-0.76025
              c-0.8376,-3.42187 -1.4748,-6.89062 -1.90825,-10.38721
              c-5.3168,-3.30029 -12.70781,-10.73437 -15.94116,-16.0708
              c-2.26948,-3.74414 -4.15049,-7.82227 -3.01934,-12.2959
              c0.59121,-2.33643 2.07114,-4.13818 4.11768,-5.35254
              c5.27285,-3.13184 12.06401,-2.35254 17.69136,-0.87598z" 
            fill="#000000"/>

      <!-- Lock Body Inside Atom - Top Section (Light Orange) -->
      <path d="M141.23994,159.47607
              c1.67373,0.83789 4.1978,1.55127 6.02959,1.92627
              c-1.84717,1.12793 -3.79614,2.08447 -4.88628,4.04297
              c0.0271,0.05859 0.05347,0.11719 0.0813,0.17725
              c0.3416,0.72217 0.80171,1.71094 1.62422,1.96875
              c1.95103,0.61084 6.88096,-2.53564 8.74277,-3.53174
              c4.99072,2.10938 19.04297,10.90137 22.06348,14.93701
              c-1.32422,1.53223 -3.01611,2.61914 -4.41357,4.07959
              c0.08643,-1.10303 0.18457,-2.21045 0.22705,-3.31641
              c0.03223,-0.84082 -0.0542,-1.75342 -0.68262,-2.37891
              c-0.73682,-0.73389 -1.64941,-0.60791 -2.60449,-0.5874
              c-0.63428,0.50244 -1.07666,0.97852 -1.52197,1.65674
              c-0.20508,2.36133 -0.0791,4.81055 -0.06738,7.18213
              c-0.01465,0.19189 -0.00293,0.21094 -0.09229,0.41455
              c-1.06494,2.44922 -15.60059,9.10254 -18.58887,10.34912
              c-1.67593,0.69873 -3.42759,1.23779 -5.15288,1.80029
              c-0.72773,-1.86768 -1.09922,-3.82617 -1.50132,-5.78174
              c1.46543,0.81006 3.42949,2.57959 5.2144,2.18701
              c0.50024,-0.11133 0.88755,-0.43213 1.15708,-0.85986
              c0.38818,-0.61816 0.49219,-1.32715 0.27393,-2.03174
              c-0.44092,-1.42676 -5.51323,-4.03564 -6.91187,-4.84717
              c-1.74229,-5.26758 -0.41382,-16.64062 0.53701,-22.39893
              c0.22017,-1.33301 0.7853,-2.68652 0.93354,-4.00781
              c0.05376,-0.479 -0.18105,-0.62256 -0.46084,-0.97998z" 
            fill="#f89f00"/>

      <!-- Nucleus of atom (blue) -->    
      <path d="M151.51758,168.95654
              c5.58252,-0.73535 10.69629,3.21826 11.3877,8.80811
              c0.69287,5.58838 -3.30029,10.66992 -8.89453,11.32031
              c-2.93701,0.33984 -5.87695,-0.61816 -8.04961,-2.62354
              c-2.17251,-2.00684 -3.36108,-4.86182 -3.2543,-7.81641
              c0.17856,-4.94678 3.90205,-9.04248 8.81074,-9.68848z" 
            fill="#54cafe"/>

      <!-- Lock Body Inside Atom - Left Section (Light Orange) -->
      <path d="M128.34404,157.67725
              c1.79619,-0.21387 6.9873,0.13477 8.53081,1.11914
              c0.28389,0.6709 -0.91113,5.54443 -1.07036,6.72949
              c-0.3498,2.60156 -0.40371,5.16211 -0.57334,7.771
              c-0.19995,3.07617 -0.49307,6.0293 -0.45923,9.12158
              c-1.13818,-0.71045 -2.12197,-1.50293 -3.10063,-2.41846
              c-4.23208,-3.73535 -10.33081,-10.396 -10.97988,-16.24658
              c-0.14019,-1.26416 0.05083,-2.52539 0.88198,-3.52881
              c1.51421,-1.82666 4.54365,-2.32178 6.77065,-2.54736z" 
            fill="#f89f00"/>

      <!-- Lock Body Inside Atom - Right Section (Light Orange) -->
      <path d="M174.854,157.68018
            c0.66943,-0.0835 1.40332,-0.07471 2.07568,-0.03955
            c2.28516,0.11865 5.55322,0.80273 7.09131,2.61182
            c0.79688,0.93604 1.09131,2.0874 0.99463,3.29883
            c-0.33691,4.27002 -3.73975,9.11865 -6.84521,11.87695
            c-1.54102,-1.36963 -3.08203,-2.73486 -4.68018,-4.0415
            c-4.28906,-3.23145 -10.30225,-7.69043 -15.24463,-9.66357
            c5.33496,-1.97021 10.92041,-3.55811 16.6084,-4.04297z" 
          fill="#f89f00"/>

      <!-- Lock Body Inside Atom - Bottom Section (Light Orange) -->
      <path d="M164.46094,192.90674
            c0.15967,0.13037 0.14795,0.07178 0.18164,0.26514
            c0.41895,2.39795 -1.77832,9.38818 -2.72314,11.78906
            c-0.76611,1.94678 -1.70068,3.9375 -2.85205,5.68652
            c-1.6582,2.51953 -3.64307,4.3418 -6.65186,4.94971
            c-2.54443,-0.89062 -3.7749,-1.96729 -5.31445,-4.14844
            c-1.14199,-1.69922 -2.15361,-3.53906 -2.91021,-5.44336
            c-0.41367,-1.04004 -0.72598,-2.11377 -1.18418,-3.1377
            l-0.06577,-0.14355
            c7.26416,-2.0874 15.22852,-5.56787 21.52002,-9.81738z" 
        fill="#f89f00"/>
        
      <!-- Electron - Top Right (Blue) -->
      <path d="M186.18164,202.47217
              c-0.82324,1.37402 -1.01953,3.09082 -1.90869,4.45459
              c-1.05176,1.61279 -3.04395,2.82715 -4.9043,3.18311
              c-1.88965,0.36035 -3.84375,-0.18164 -5.4126,-1.25977
              c-1.74902,-1.19971 -3.08789,-3.15234 -3.3999,-5.26465
              c-0.2915,-1.97021 0.33252,-4.02246 1.55273,-5.57959
              c1.19678,-1.52637 3.12451,-2.70264 5.06396,-2.91504
              c2.81396,-0.30615 4.83545,0.9126 6.89648,2.61914
              c1.41211,1.86328 1.11035,3.35889 2.1123,4.76221z" 
            fill="#54cafe"/>
      
      <!-- Electron - Bottom Left (Blue) -->
      <path d="M115.91089,195.70459
              c-3.15542,-1.84131 -4.54585,-5.6748 -3.30586,-9.11133
              c1.24014,-3.43652 4.75693,-5.49902 8.36191,-4.90283
              c3.60483,0.59619 6.27026,3.68115 6.33706,7.33447
              c0.06694,3.65332 -2.48379,6.8335 -6.06445,7.56152
              c-1.82417,0.37061 -3.72114,0.05713 -5.32866,-0.88184z" 
            fill="#54cafe"/>
      
      <!-- Electron - Top (Blue) -->
      <path d="M156.73242,138.77095
              c3.20654,-1.88159 7.30371,-1.15854 9.67236,1.70669
              c2.36719,2.86538 2.30566,7.02627 -0.14648,9.81973
              c-2.45068,2.79346 -6.56836,3.39551 -9.71631,1.41943
              c-3.14941,-1.97607 -4.39893,-5.94463 -2.94873,-9.36753
              c0.63428,-1.49927 1.73584,-2.75405 3.13916,-3.57832z" 
            fill="#54cafe"/>
    </g>
</svg>