<svg id="svg" version="1.1" viewBox="0 0 300 300" width="300" height="300" xmlns="http://www.w3.org/2000/svg">
    <defs>
        <!-- SHIELD COMPONENTS -->
        <g id="shield-outer-border-left">
            <path d="M 149,5.02506 c 3.88037,-0.35407 6.13477,1.34123 9.43066,3.0454 c 1.93652,0.98767 3.89209,1.93736 5.86523,2.84855 c 6.7749,3.09911 13.70947,5.84013 20.77148,8.21186 c 21.10986,7.26753 47.05957,12.11206 69.39844,13.61294 c 3.02197,0.20713 6.04541,0.38247 9.07031,0.52573 c 2.69092,0.10195 5.3291,0.13521 8.01416,0.4415 c 4.02979,0.42319 8.03906,4.11606 8.42578,8.22773 c 0.39844,4.25449 0.19629,8.99722 0.19482,13.3377 l 0.00439,26.92354 l 0.00146,23.50576 c -0.00146,8.05957 0.03516,15.01406 -0.5625,23.05474 c -2.76123,34.5022 -14.9458,67.58276 -35.2251,95.63306 c -14.49023,19.98779 -32.76855,36.93311 -53.79346,49.87061 c -6.66943,4.13379 -13.93213,7.91455 -20.84619,11.67773 l -9.13477,4.99072 c -3.15088,1.72266 -5.85205,3.47607 -9.4541,4.0415 L 150,294.97494 L 150,271.09425 C 147.17155,272.8711 153.09391,272.94141 155.09928,271.10157 C 158.31168,269.26173 162.06168,267.45411 165.15836,265.58204 C 166.19986,265.3462 174.16383,260.90333 175.07789,260.11231 C 178.36939,258.16993 181.93335,256.08399 185.06812,253.91456 C 186.35718,253.54542 193.96118,247.94679 195.0188,246.84083 C 200.29809,242.21193 204.85522,238.85597 210.02319,233.59425 C 212.27905,231.87159 218.31127,225.31202 220.01342,222.94044 C 223.82202,217.94679 227.00219,214.23048 230.67188,208.85011 C 244.09131,189.22413 253.19092,166.97316 257.36719,143.56759 C 258.58008,136.72662 259.37842,129.81827 259.75342,122.88048 C 260.05957,117.1985 260.00098,111.30338 260.00244,105.60499 L 259.99951,82.92569 L 260.01269,66.30923 C 260.01416,63.35025 260.06689,60.39463 259.92187,57.44004 C 259.82959,55.54863 258.33691,53.57973 256.45898,53.19155 C 252.71191,52.41767 248.77001,52.69731 244.95849,52.10522 C 243.84814,51.73988 236.06835,50.95048 234.94628,51.00424 C 230.60302,50.68491 225.00585,49.70288 220.63769,48.91318 C 198.9624,45.0156 174.86279,37.99116 154.91162,28.59184 C 154.39014,28.13452 152.6499,27.3769 151.91455,27.16772 C 150,26.45698 147.15674,27.33647 145.01133,28.62949 L 150,5.02506 Z" 
                fill="#d3af37" 
                fill-rule="evenodd"/>
        </g>
        
        <g id="shield-inner-left">
            <path d="M 145.01133,28.62949 c 2.14541,-1.29302 4.40566,-2.17251 6.90322,-1.46177 c 0.73535,0.20918 2.47559,0.9668 2.99707,1.42412 c 19.95117,9.39932 44.05078,16.40376 65.72607,20.32134 c 4.36816,0.7897 9.96533,1.77173 14.30859,2.09106 c 1.12207,-0.05376 8.90186,0.73564 10.01221,1.10098 c 3.81152,0.59209 7.75342,0.31245 11.50049,1.08633 c 1.87793,0.38818 3.37061,2.35708 3.46289,4.24849 c 0.14502,2.95459 0.09229,5.91021 0.09082,8.86919 l -0.01318,16.61646 l 0.00293,22.6793 c -0.00146,5.69839 0.05713,11.59351 -0.24902,17.27549 c -0.375,6.93779 -1.17334,13.84614 -2.38623,20.68711 c -4.17627,23.40557 -13.27588,45.65654 -26.69531,65.28252 c -3.67969,5.38037 -6.85986,9.09668 -10.66846,14.09033 c -1.70215,2.37158 -7.73437,8.93115 -9.99023,10.65381 c -5.16797,5.26172 -9.7251,8.61768 -15.00439,13.24658 c -1.05762,1.10596 -8.66162,6.70459 -9.95068,7.07373 c -3.13477,2.16943 -6.69873,4.25537 -9.99023,6.19775 c -0.91406,0.79102 -8.97803,5.23389 -10.01953,5.46973 c -3.09668,1.87207 -6.84668,3.67969 -10.05908,5.51953 c -2.00537,1.83984 -7.92773,1.76953 -9.98599,-0.00732" 
                fill="#143b78"/>
        </g>
        
        <!-- CIRCUIT COMPONENTS -->
        <g id="circuit-traces-left">
            <polyline points="100,180 100,210 75,220" 
                stroke="#befafa" 
                stroke-width="10" 
                stroke-linecap="round"
                stroke-linejoin="round"
                fill="none"/>
            
            <polyline points="120,200 120,225 85,240" 
                stroke="#befafa" 
                stroke-width="10" 
                stroke-linecap="round"
                stroke-linejoin="round"
                fill="none"/>
            
            <line x1="80" y1="40" x2="80" y2="80" 
                stroke="#befaf0" 
                stroke-width="10" 
                stroke-linecap="round"/>
            
            <polyline points="60,50 60,100 80,120 80,140" 
                stroke="#befafa" 
                stroke-width="10" 
                stroke-linecap="round"
                stroke-linejoin="round"
                fill="none"/>
        </g>
        
        <g id="circuit-nodes-left">
            <circle cx="100" cy="170" r="8" fill="#6be8e9"/>
            <circle cx="80" cy="140" r="10" fill="#6be8e9"/>
        </g>
        
        <g id="circuit-center">
            <line x1="150" y1="230" x2="150" y2="272" 
                stroke="#befafa" 
                stroke-width="10" 
                stroke-linecap="round"/>
            
            <line x1="151" y1="70" x2="151" y2="21" 
                stroke="#befafa" 
                stroke-width="10" 
                stroke-linecap="round"/>
            
            <circle cx="151" cy="76" r="8" fill="#6be8e9"/>
            <circle cx="150" cy="220" r="10" fill="#6be8e9"/>
        </g>
        
        <!-- ATOM SYMBOL -->
        <g id="atom-symbol">
            <!-- Vertical orbital -->
            <path d="M 62.496094,0 C 50.992188,0 41.664062,27.984375 41.664062,62.5 C 41.664062,97.015625 50.992188,125 62.496094,125 C 74.003906,125 83.335938,97.015625 83.335938,62.5 C 83.335938,27.984375 74.003906,0 62.496094,0 Z M 72.289062,105.050781 C 70.589844,110.140625 68.597656,114.230469 66.519531,116.863281 C 65.054688,118.726562 63.589844,119.789062 62.496094,119.789062 C 61.410156,119.789062 59.945312,118.726562 58.480469,116.863281 C 56.402344,114.230469 54.402344,110.140625 52.710938,105.050781 C 50.894531,99.605469 49.46875,93.230469 48.460938,86.105469 C 47.40625,78.636719 46.875,70.691406 46.875,62.5 C 46.875,54.300781 47.40625,46.363281 48.460938,38.894531 C 49.46875,31.769531 50.894531,25.394531 52.710938,19.949219 C 54.402344,14.859375 56.402344,10.769531 58.480469,8.136719 C 59.945312,6.273438 61.410156,5.210938 62.496094,5.210938 C 63.589844,5.210938 65.054688,6.273438 66.519531,8.136719 C 68.597656,10.769531 70.589844,14.859375 72.289062,19.949219 C 74.101562,25.394531 75.535156,31.769531 76.539062,38.894531 C 77.589844,46.363281 78.121094,54.300781 78.121094,62.5 C 78.121094,70.691406 77.589844,78.636719 76.539062,86.105469 C 75.535156,93.230469 74.101562,99.605469 72.289062,105.050781 Z" 
                fill="rgb(80%,81.96%,85.1%)"/>
            
            <!-- Diagonal orbital (top-right to bottom-left) -->
            <path d="M 116.625,31.25 C 114.730469,27.96875 110.328125,26.410156 104.203125,26.410156 C 91.734375,26.410156 72.132812,32.878906 52.085938,44.457031 C 22.1875,61.71875 2.617188,83.785156 8.375,93.75 C 10.269531,97.03125 14.667969,98.589844 20.792969,98.589844 C 33.261719,98.589844 52.867188,92.121094 72.917969,80.542969 C 102.808594,63.285156 122.378906,41.214844 116.625,31.25 Z M 111.585938,38.800781 C 110.347656,41.914062 107.800781,45.6875 104.242188,49.707031 C 100.433594,54 95.628906,58.421875 89.957031,62.855469 C 84.019531,67.5 77.40625,71.933594 70.308594,76.035156 C 60.921875,81.449219 51.246094,85.933594 42.324219,88.980469 C 33.902344,91.859375 26.457031,93.382812 20.792969,93.382812 C 15.914062,93.382812 13.511719,92.226562 12.878906,91.144531 C 12.339844,90.199219 12.527344,88.402344 13.410156,86.207031 C 14.652344,83.085938 17.191406,79.316406 20.757812,75.292969 C 24.558594,71 29.371094,66.578125 35.039062,62.144531 C 40.980469,57.5 47.589844,53.066406 54.6875,48.96875 C 64.078125,43.542969 73.753906,39.066406 82.671875,36.019531 C 91.097656,33.140625 98.542969,31.621094 104.203125,31.617188 C 109.085938,31.617188 111.496094,32.773438 112.121094,33.855469 C 112.660156,34.800781 112.472656,36.597656 111.585938,38.800781 Z" 
                fill="rgb(90.2%,91.37%,92.94%)"/>
            
            <!-- Diagonal orbital (top-left to bottom-right) -->
            <path d="M 72.917969,44.457031 C 52.863281,32.878906 33.261719,26.410156 20.792969,26.410156 C 14.667969,26.410156 10.261719,27.96875 8.375,31.25 C 2.617188,41.214844 22.1875,63.285156 52.085938,80.542969 C 72.132812,92.121094 91.734375,98.589844 104.203125,98.589844 C 110.328125,98.589844 114.730469,97.03125 116.625,93.75 C 122.378906,83.785156 102.808594,61.71875 72.917969,44.457031 Z M 112.121094,91.144531 C 111.496094,92.226562 109.085938,93.382812 104.203125,93.382812 C 98.542969,93.382812 91.097656,91.859375 82.671875,88.980469 C 73.753906,85.933594 64.078125,81.457031 54.6875,76.035156 C 47.589844,71.933594 40.980469,67.5 35.039062,62.855469 C 29.371094,58.421875 24.558594,54 20.757812,49.707031 C 17.191406,45.6875 14.652344,41.914062 13.410156,38.800781 C 12.527344,36.597656 12.339844,34.800781 12.878906,33.855469 C 13.503906,32.773438 15.914062,31.621094 20.792969,31.617188 C 26.457031,31.617188 33.902344,33.140625 42.328125,36.019531 C 51.246094,39.066406 60.921875,43.542969 70.308594,48.96875 C 77.40625,53.066406 84.019531,57.5 89.957031,62.144531 C 95.628906,66.578125 100.433594,71 104.242188,75.292969 C 107.800781,79.316406 110.347656,83.085938 111.585938,86.207031 C 112.472656,88.402344 112.660156,90.199219 112.121094,91.144531 Z" 
                fill="rgb(80%,81.96%,85.1%)"/>
            
            <!-- Nucleus -->
            <circle cx="62.496094" cy="62.5" r="9.5" 
                fill="rgb(80.47%,10%,10%)"/>
        </g>
    </defs>
    
    <!-- RENDER ORDER: Bottom to Top -->
    
    <!-- Layer 1: Inner shields (background) -->
    <use href="#shield-inner-left"/>
    <use href="#shield-inner-left" transform="translate(150,0) scale(-1,1) translate(-150,0)"/>
    
    <!-- Layer 2: Atom symbol (center) -->
    <use href="#atom-symbol" x="89" y="75"/>
    
    <!-- Layer 3: Circuit traces and nodes -->
    <use href="#circuit-traces-left"/>
    <use href="#circuit-traces-left" transform="translate(150,0) scale(-1,1) translate(-150,0)"/>
    <use href="#circuit-nodes-left"/>
    <use href="#circuit-nodes-left" transform="translate(150,0) scale(-1,1) translate(-150,0)"/>
    <use href="#circuit-center"/>
    
    <!-- Layer 4: Outer shield borders (top/frame) -->
    <use href="#shield-outer-border-left"/>
    <use href="#shield-outer-border-left" transform="translate(151,0) scale(-1,1) translate(-151,0)"/>
</svg>